# xmcd
#
# Track frame offsets: 
#        150
#        18283
#        35752
#        55028
#        77989
#        91683
#
# Disc length: 1391 seconds
#
# Revision: 0
# Processed by: cddbd v1.5.2PL0 Copyright (c) Steve Scherf et al.
# Submitted via: ExactAudioCopy v1.0b3
#
DISCID=3d056d06
DTITLE=Jodie Goffe - The Day The Moon Left EP
DYEAR=2012
DGENRE=Folk
TTITLE0=Birdsong
TTITLE1=The Day The Moon Left
TTITLE2=He Will Be Young
TTITLE3=Searching To Be Lost
TTITLE4=Light Of Day
TTITLE5=Long Before
EXTD=
EXTT0=
EXTT1=
EXTT2=
EXTT3=
EXTT4=
EXTT5=
PLAYORDER=
